<?xml version="1.0" encoding="iso-8859-1"?>
<!-- Uploaded to: SVG Repo, www.svgrepo.com, Generator: SVG Repo Mixer Tools -->
<!DOCTYPE svg PUBLIC "-//W3C//DTD SVG 1.1//EN" "http://www.w3.org/Graphics/SVG/1.1/DTD/svg11.dtd">
<svg fill="#b2aead" version="1.1" id="Capa_1" xmlns="http://www.w3.org/2000/svg" xmlns:xlink="http://www.w3.org/1999/xlink" 
	 width="800px" height="800px" viewBox="0 0 80.119 80.119"
	 xml:space="preserve">
<g>
	<path d="M40.059,0C17.935,0,0,17.935,0,40.059c0,22.125,17.935,40.061,40.059,40.061c22.125,0,40.06-17.936,40.06-40.061
		C80.119,17.935,62.184,0,40.059,0z M40.059,70.104c-16.593,0-30.043-13.451-30.043-30.045c0-16.593,13.45-30.042,30.043-30.042
		s30.044,13.45,30.044,30.042C70.104,56.652,56.652,70.104,40.059,70.104z M60.088,40.061c0,11.062-8.967,20.028-20.029,20.028
		S20.03,51.122,20.03,40.061c0-11.062,8.967-20.029,20.029-20.029C51.122,20.03,60.088,28.997,60.088,40.061z"/>
</g>
</svg>